# Blender 3.6.0
# www.blender.org
mtllib abx.mtl
g Cube_Cube
v 1.000000 1.000000 -1.000000
v 1.000000 -1.000000 -1.000000
v 1.000000 1.000000 1.000000
v 1.000000 -1.000000 1.000000
v -1.000000 1.000000 -1.000000
v -1.000000 -1.000000 -1.000000
v -1.000000 1.000000 1.000000
v -1.000000 -1.000000 1.000000
v 0.708125 2.198397 0.708125
v -0.708125 2.198397 0.708125
v 0.708125 2.198397 -0.708125
v -0.708125 2.198397 -0.708125
vn -0.0000 0.2366 0.9716
vn -0.0000 -0.0000 1.0000
vn -1.0000 -0.0000 -0.0000
vn -0.0000 -1.0000 -0.0000
vn 1.0000 -0.0000 -0.0000
vn -0.0000 -0.0000 -1.0000
vn -0.0000 1.0000 -0.0000
vn -0.9716 0.2366 -0.0000
vn 0.9716 0.2366 -0.0000
vn -0.0000 0.2366 -0.9716
vt 0.000000 0.000000
vt 1.000000 0.000000
vt 1.000000 1.000000
vt 0.000000 1.000000
vt 0.000000 1.000000
vt 0.000000 0.000000
vt 0.125000 0.500000
vt 0.375000 0.500000
vt 0.375000 0.750000
vt 0.125000 0.750000
vt 0.999992 -0.000008
vt 1.000008 0.999992
vt 0.000008 1.000008
vt -0.000008 0.000008
s 0
g Cube_aa
usemtl aa
f 4/5/2 3/6/2 7/2/2 8/3/2
f 8/5/3 7/6/3 5/2/3 6/3/3
f 6/7/4 2/8/4 4/9/4 8/10/4
f 2/11/5 1/12/5 3/13/5 4/14/5
f 6/5/6 5/6/6 1/2/6 2/3/6
g Cube_bb
usemtl bb
f 7/1/1 3/2/1 9/3/1 10/4/1
f 11/1/7 12/2/7 10/3/7 9/4/7
f 5/1/8 7/2/8 10/3/8 12/4/8
f 3/1/9 1/2/9 11/3/9 9/4/9
f 1/1/10 5/2/10 12/3/10 11/4/10
